<?xml version="1.0" standalone="no"?>
<!DOCTYPE svg PUBLIC "-//W3C//DTD SVG 20010904//EN"
 "http://www.w3.org/TR/2001/REC-SVG-20010904/DTD/svg10.dtd">
<svg version="1.0" xmlns="http://www.w3.org/2000/svg"
 width="600.000000pt" height="600.000000pt" viewBox="0 0 600.000000 600.000000"
 preserveAspectRatio="xMidYMid meet">
<metadata>
Created by potrace 1.14, written by Peter Selinger 2001-2017
</metadata>
<g transform="translate(0.000000,600.000000) scale(0.100000,-0.100000)"
fill="#000000" stroke="none">
<path d="M0 3000 l0 -3000 3000 0 3000 0 0 3000 0 3000 -3000 0 -3000 0 0
-3000z m3222 1800 c114 -11 148 -18 148 -32 0 -6 -10 -8 -22 -4 -41 12 -201
30 -271 30 -49 0 -79 -5 -110 -21 -124 -62 -152 -77 -157 -82 -3 -4 -24 -21
-47 -39 -66 -51 -99 -122 -137 -294 -14 -62 -14 -71 2 -105 34 -74 72 -119
129 -152 32 -19 70 -42 84 -52 51 -34 179 -53 195 -28 4 8 9 8 17 0 14 -14 53
-14 109 -1 24 5 73 14 110 20 77 12 222 80 253 119 31 39 95 247 95 312 0 67
-119 194 -200 212 -88 20 -177 53 -168 62 6 7 192 -51 236 -73 41 -21 87 -65
120 -115 23 -34 24 -44 19 -120 -4 -58 -16 -114 -44 -192 l-38 -110 -89 -47
c-48 -26 -100 -49 -115 -53 -31 -6 -155 -25 -231 -33 l-55 -7 0 -40 c-1 -22
-6 -56 -13 -75 -6 -19 -17 -111 -22 -205 -6 -93 -12 -183 -13 -200 l-2 -30
170 -3 c149 -3 416 10 483 24 12 2 22 1 22 -4 0 -14 -276 -32 -481 -32 l-197
0 -6 -43 c-4 -24 -11 -155 -16 -292 -7 -203 -14 -273 -35 -373 -14 -68 -30
-132 -35 -143 -6 -10 -8 -29 -5 -42 8 -28 -43 -78 -196 -192 -210 -157 -312
-245 -485 -418 -99 -100 -230 -230 -290 -288 -112 -109 -211 -213 -298 -312
-28 -32 -53 -57 -58 -57 -11 0 3 33 22 50 9 8 62 65 117 125 55 61 147 155
203 210 57 55 187 184 289 286 179 178 263 251 471 405 148 110 210 170 210
205 0 16 6 45 14 63 7 18 17 53 21 77 3 24 13 78 21 119 16 79 38 600 26 612
-4 3 -119 8 -257 11 -148 3 -262 9 -280 16 -29 10 -29 11 10 5 22 -2 151 -7
286 -10 l247 -6 11 51 c6 29 11 75 11 104 0 29 8 115 16 192 9 77 17 156 18
175 l1 35 -75 6 c-81 6 -108 16 -215 82 -58 36 -76 53 -108 107 -32 55 -37 72
-34 110 14 157 80 326 144 370 20 14 42 30 48 36 17 17 166 88 200 95 46 10
121 9 227 -1z m-136 -224 c3 -8 -13 -33 -35 -57 -23 -24 -41 -47 -41 -51 0 -9
-95 -10 -128 -2 -19 5 -22 12 -20 37 2 24 12 35 46 53 66 35 168 46 178 20z
m244 -70 c0 -12 -5 -38 -11 -58 -8 -33 -14 -38 -39 -38 -35 0 -130 46 -130 64
0 24 72 55 128 54 46 -1 52 -4 52 -22z m-405 -306 c10 -16 60 -39 117 -54 48
-12 56 -12 90 5 21 11 48 19 60 19 17 -1 10 -7 -27 -26 -41 -20 -59 -24 -99
-19 -55 7 -176 58 -176 74 0 14 27 14 35 1z m75 -1796 c92 -155 116 -200 304
-570 112 -221 139 -266 207 -346 72 -86 92 -115 71 -106 -5 2 -40 39 -79 83
-59 68 -93 120 -164 255 -4 8 -37 76 -73 150 -36 74 -81 161 -100 193 -19 31
-38 67 -42 80 -3 12 -21 47 -39 77 -18 30 -42 71 -53 90 -11 19 -39 65 -61
103 -22 37 -35 67 -28 67 7 0 32 -35 57 -76z"/>
<path d="M2964 4557 c-34 -12 -69 -29 -79 -37 -16 -13 -16 -15 5 -32 13 -10
39 -18 61 -18 32 0 41 5 53 28 8 15 23 36 35 46 21 19 20 37 -2 35 -7 0 -40
-10 -73 -22z"/>
<path d="M3217 4498 c-21 -10 -37 -22 -37 -26 1 -9 102 -54 108 -47 3 3 0 11
-6 17 -18 18 -14 30 7 23 13 -4 20 0 23 13 9 32 -49 44 -95 20z"/>
</g>
</svg>
